<svg width="16" height="16" viewBox="0 0 16 16" fill="none" xmlns="http://www.w3.org/2000/svg">
<g clip-path="url(#clip0)">
<path d="M6.62442 9.37435C5.09725 7.84718 4.75242 6.32 4.67463 5.70814C4.65289 5.53896 4.71111 5.36929 4.83215 5.24911L6.06801 4.0138C6.24981 3.83211 6.28207 3.54896 6.1458 3.33104L4.17808 0.275588C4.02732 0.0342778 3.71779 -0.0528137 3.46332 0.074485L0.304424 1.56221C0.098647 1.66354 -0.0223882 1.88217 0.000975495 2.11035C0.166493 3.68276 0.85201 7.54814 4.65063 11.347C8.44925 15.1459 12.3141 15.8312 13.8873 15.9967C14.1155 16.0201 14.3341 15.899 14.4355 15.6932L15.9232 12.5343C16.05 12.2804 15.9635 11.9717 15.7232 11.8207L12.6677 9.85352C12.4499 9.71711 12.1668 9.74914 11.985 9.93076L10.7497 11.1666C10.6295 11.2877 10.4598 11.3459 10.2906 11.3241C9.67877 11.2463 8.1516 10.9015 6.62442 9.37435Z" fill="white"/>
<path d="M12.6887 8.55134C12.3839 8.55134 12.1369 8.30433 12.1369 7.99963C12.1343 5.7154 10.2833 3.86432 7.99904 3.86174C7.69434 3.86174 7.44733 3.61472 7.44733 3.31002C7.44733 3.00531 7.69434 2.7583 7.99904 2.7583C10.8924 2.76149 13.2372 5.10625 13.2404 7.99963C13.2404 8.30433 12.9934 8.55134 12.6887 8.55134Z" fill="white"/>
<path d="M15.4473 8.55172C15.1426 8.55172 14.8956 8.30471 14.8956 8C14.8913 4.1929 11.8061 1.10771 7.99905 1.10345C7.69434 1.10345 7.44733 0.856433 7.44733 0.551724C7.44733 0.247015 7.69434 0 7.99905 0C12.4153 0.00486507 15.9941 3.58374 15.999 8C15.999 8.14633 15.9409 8.28666 15.8374 8.39013C15.7339 8.4936 15.5936 8.55172 15.4473 8.55172Z" fill="white"/>
</g>
<defs>
<clipPath id="clip0">
<rect width="16" height="16" fill="white"/>
</clipPath>
</defs>
</svg>
